<?xml version="1.0" encoding="UTF-8" standalone="no"?>
<!DOCTYPE svg PUBLIC "-//W3C//DTD SVG 1.1//EN"
 "http://www.w3.org/Graphics/SVG/1.1/DTD/svg11.dtd">
<!-- Generated by graphviz version 13.1.2 (0)
 -->
<!-- Pages: 1 -->
<svg width="320pt" height="171pt"
 viewBox="0.00 0.00 320.00 171.00" xmlns="http://www.w3.org/2000/svg" xmlns:xlink="http://www.w3.org/1999/xlink">
<g id="graph0" class="graph" transform="scale(1 1) rotate(0) translate(4 166.5)">
<polygon fill="white" stroke="none" points="-4,4 -4,-166.5 316.12,-166.5 316.12,4 -4,4"/>
<!-- p_a -->
<g id="node1" class="node">
<title>p_a</title>
<ellipse fill="white" stroke="black" cx="45" cy="-117.25" rx="27" ry="18"/>
<text xml:space="preserve" text-anchor="middle" x="45" y="-112.2" font-family="Times New Roman,serif" font-size="14.00">p_a</text>
</g>
<!-- c_a -->
<g id="node3" class="node">
<title>c_a</title>
<ellipse fill="grey" stroke="black" cx="27" cy="-18" rx="27" ry="18"/>
<text xml:space="preserve" text-anchor="middle" x="27" y="-12.95" font-family="Times New Roman,serif" font-size="14.00">c_a</text>
</g>
<!-- p_a&#45;&gt;c_a -->
<g id="edge1" class="edge">
<title>p_a&#45;&gt;c_a</title>
<path fill="none" stroke="black" d="M41.86,-99.31C39.2,-84.9 35.31,-63.9 32.18,-46.99"/>
<polygon fill="black" stroke="black" points="35.7,-46.76 30.44,-37.56 28.81,-48.03 35.7,-46.76"/>
</g>
<!-- Δp -->
<g id="node5" class="node">
<title>Δp</title>
<ellipse fill="white" stroke="black" stroke-dasharray="5,2" cx="99" cy="-18" rx="27" ry="18"/>
<text xml:space="preserve" text-anchor="middle" x="99" y="-12.95" font-family="Times New Roman,serif" font-size="14.00">Δp</text>
</g>
<!-- p_a&#45;&gt;Δp -->
<g id="edge3" class="edge">
<title>p_a&#45;&gt;Δp</title>
<path fill="none" stroke="black" d="M53.92,-100.19C62.23,-85.22 74.78,-62.62 84.53,-45.07"/>
<polygon fill="black" stroke="black" points="87.36,-47.17 89.15,-36.73 81.24,-43.77 87.36,-47.17"/>
</g>
<!-- p_b -->
<g id="node2" class="node">
<title>p_b</title>
<ellipse fill="white" stroke="black" cx="135" cy="-117.25" rx="27" ry="18"/>
<text xml:space="preserve" text-anchor="middle" x="135" y="-112.2" font-family="Times New Roman,serif" font-size="14.00">p_b</text>
</g>
<!-- c_b -->
<g id="node4" class="node">
<title>c_b</title>
<ellipse fill="grey" stroke="black" cx="171" cy="-18" rx="27" ry="18"/>
<text xml:space="preserve" text-anchor="middle" x="171" y="-12.95" font-family="Times New Roman,serif" font-size="14.00">c_b</text>
</g>
<!-- p_b&#45;&gt;c_b -->
<g id="edge2" class="edge">
<title>p_b&#45;&gt;c_b</title>
<path fill="none" stroke="black" d="M141.27,-99.31C146.69,-84.67 154.62,-63.24 160.93,-46.19"/>
<polygon fill="black" stroke="black" points="164.09,-47.76 164.28,-37.16 157.52,-45.33 164.09,-47.76"/>
</g>
<!-- p_b&#45;&gt;Δp -->
<g id="edge4" class="edge">
<title>p_b&#45;&gt;Δp</title>
<path fill="none" stroke="black" d="M128.73,-99.31C123.31,-84.67 115.38,-63.24 109.07,-46.19"/>
<polygon fill="black" stroke="black" points="112.48,-45.33 105.72,-37.16 105.91,-47.76 112.48,-45.33"/>
</g>
<!-- distribution_description_node -->
<g id="node6" class="node">
<title>distribution_description_node</title>
<text xml:space="preserve" text-anchor="start" x="187.88" y="-145.2" font-family="Times New Roman,serif" font-size="14.00">p_a ~ Uniform</text>
<text xml:space="preserve" text-anchor="start" x="187.88" y="-128.7" font-family="Times New Roman,serif" font-size="14.00">p_b ~ Uniform</text>
<text xml:space="preserve" text-anchor="start" x="187.88" y="-112.2" font-family="Times New Roman,serif" font-size="14.00">c_a ~ BinomialProbs</text>
<text xml:space="preserve" text-anchor="start" x="187.88" y="-95.7" font-family="Times New Roman,serif" font-size="14.00">c_b ~ BinomialProbs</text>
<text xml:space="preserve" text-anchor="start" x="187.88" y="-79.2" font-family="Times New Roman,serif" font-size="14.00">Δp ~ Deterministic</text>
</g>
</g>
</svg>
