<?xml version="1.0" encoding="UTF-8" standalone="no"?>
<!DOCTYPE svg PUBLIC "-//W3C//DTD SVG 1.1//EN"
 "http://www.w3.org/Graphics/SVG/1.1/DTD/svg11.dtd">
<!-- Generated by graphviz version 13.1.2 (0)
 -->
<!-- Pages: 1 -->
<svg width="294pt" height="178pt"
 viewBox="0.00 0.00 294.00 178.00" xmlns="http://www.w3.org/2000/svg" xmlns:xlink="http://www.w3.org/1999/xlink">
<g id="graph0" class="graph" transform="scale(1 1) rotate(0) translate(4 174)">
<polygon fill="white" stroke="none" points="-4,4 -4,-174 290.44,-174 290.44,4 -4,4"/>
<g id="clust1" class="cluster">
<title>cluster_N</title>
<polygon fill="none" stroke="black" points="37.44,-8 37.44,-84.5 107.44,-84.5 107.44,-8 37.44,-8"/>
<text xml:space="preserve" text-anchor="middle" x="94.56" y="-15.2" font-family="Times New Roman,serif" font-size="14.00">N</text>
</g>
<!-- sigma -->
<g id="node1" class="node">
<title>sigma</title>
<ellipse fill="white" stroke="black" cx="33.44" cy="-141.25" rx="33.44" ry="18"/>
<text xml:space="preserve" text-anchor="middle" x="33.44" y="-136.2" font-family="Times New Roman,serif" font-size="14.00">sigma</text>
</g>
<!-- Y -->
<g id="node3" class="node">
<title>Y</title>
<ellipse fill="grey" stroke="black" cx="72.44" cy="-58.5" rx="27" ry="18"/>
<text xml:space="preserve" text-anchor="middle" x="72.44" y="-53.45" font-family="Times New Roman,serif" font-size="14.00">Y</text>
</g>
<!-- sigma&#45;&gt;Y -->
<g id="edge1" class="edge">
<title>sigma&#45;&gt;Y</title>
<path fill="none" stroke="black" d="M41.52,-123.52C46.73,-112.73 53.62,-98.46 59.58,-86.13"/>
<polygon fill="black" stroke="black" points="62.65,-87.82 63.84,-77.3 56.34,-84.78 62.65,-87.82"/>
</g>
<!-- mu -->
<g id="node2" class="node">
<title>mu</title>
<ellipse fill="white" stroke="black" cx="111.44" cy="-141.25" rx="27" ry="18"/>
<text xml:space="preserve" text-anchor="middle" x="111.44" y="-136.2" font-family="Times New Roman,serif" font-size="14.00">mu</text>
</g>
<!-- mu&#45;&gt;Y -->
<g id="edge2" class="edge">
<title>mu&#45;&gt;Y</title>
<path fill="none" stroke="black" d="M103.55,-123.91C98.35,-113.14 91.42,-98.8 85.42,-86.38"/>
<polygon fill="black" stroke="black" points="88.61,-84.94 81.11,-77.46 82.31,-87.98 88.61,-84.94"/>
</g>
<!-- distribution_description_node -->
<g id="node4" class="node">
<title>distribution_description_node</title>
<text xml:space="preserve" text-anchor="start" x="164.44" y="-152.7" font-family="Times New Roman,serif" font-size="14.00">sigma ~ HalfNormal</text>
<text xml:space="preserve" text-anchor="start" x="164.44" y="-136.2" font-family="Times New Roman,serif" font-size="14.00">mu ~ Normal</text>
<text xml:space="preserve" text-anchor="start" x="164.44" y="-119.7" font-family="Times New Roman,serif" font-size="14.00">Y ~ Normal</text>
</g>
</g>
</svg>
