<?xml version="1.0" encoding="UTF-8" standalone="no"?>
<!DOCTYPE svg PUBLIC "-//W3C//DTD SVG 1.1//EN"
 "http://www.w3.org/Graphics/SVG/1.1/DTD/svg11.dtd">
<!-- Generated by graphviz version 13.1.2 (0)
 -->
<!-- Pages: 1 -->
<svg width="272pt" height="138pt"
 viewBox="0.00 0.00 272.00 138.00" xmlns="http://www.w3.org/2000/svg" xmlns:xlink="http://www.w3.org/1999/xlink">
<g id="graph0" class="graph" transform="scale(1 1) rotate(0) translate(4 133.5)">
<polygon fill="white" stroke="none" points="-4,4 -4,-133.5 267.75,-133.5 267.75,4 -4,4"/>
<!-- p -->
<g id="node1" class="node">
<title>p</title>
<ellipse fill="white" stroke="black" cx="27" cy="-100.75" rx="27" ry="18"/>
<text xml:space="preserve" text-anchor="middle" x="27" y="-95.7" font-family="Times New Roman,serif" font-size="14.00">p</text>
</g>
<!-- y -->
<g id="node3" class="node">
<title>y</title>
<ellipse fill="grey" stroke="black" cx="63" cy="-18" rx="27" ry="18"/>
<text xml:space="preserve" text-anchor="middle" x="63" y="-12.95" font-family="Times New Roman,serif" font-size="14.00">y</text>
</g>
<!-- p&#45;&gt;y -->
<g id="edge1" class="edge">
<title>p&#45;&gt;y</title>
<path fill="none" stroke="black" d="M34.46,-83.02C39.24,-72.3 45.55,-58.15 51.02,-45.88"/>
<polygon fill="black" stroke="black" points="54.06,-47.65 54.93,-37.09 47.67,-44.8 54.06,-47.65"/>
</g>
<!-- n -->
<g id="node2" class="node">
<title>n</title>
<ellipse fill="white" stroke="black" stroke-dasharray="5,2" cx="99" cy="-100.75" rx="27" ry="18"/>
<text xml:space="preserve" text-anchor="middle" x="99" y="-95.7" font-family="Times New Roman,serif" font-size="14.00">n</text>
</g>
<!-- n&#45;&gt;y -->
<g id="edge2" class="edge">
<title>n&#45;&gt;y</title>
<path fill="none" stroke="black" d="M91.54,-83.02C86.76,-72.3 80.45,-58.15 74.98,-45.88"/>
<polygon fill="black" stroke="black" points="78.33,-44.8 71.07,-37.09 71.94,-47.65 78.33,-44.8"/>
</g>
<!-- distribution_description_node -->
<g id="node4" class="node">
<title>distribution_description_node</title>
<text xml:space="preserve" text-anchor="start" x="152.25" y="-112.2" font-family="Times New Roman,serif" font-size="14.00">p ~ Uniform</text>
<text xml:space="preserve" text-anchor="start" x="152.25" y="-95.7" font-family="Times New Roman,serif" font-size="14.00">n ~ Deterministic</text>
<text xml:space="preserve" text-anchor="start" x="152.25" y="-79.2" font-family="Times New Roman,serif" font-size="14.00">y ~ BinomialProbs</text>
</g>
</g>
</svg>
