<?xml version="1.0" encoding="UTF-8" standalone="no"?>
<!DOCTYPE svg PUBLIC "-//W3C//DTD SVG 1.1//EN"
 "http://www.w3.org/Graphics/SVG/1.1/DTD/svg11.dtd">
<!-- Generated by graphviz version 13.1.2 (0)
 -->
<!-- Pages: 1 -->
<svg width="216pt" height="162pt"
 viewBox="0.00 0.00 216.00 162.00" xmlns="http://www.w3.org/2000/svg" xmlns:xlink="http://www.w3.org/1999/xlink">
<g id="graph0" class="graph" transform="scale(1 1) rotate(0) translate(4 157.5)">
<polygon fill="white" stroke="none" points="-4,4 -4,-157.5 211.75,-157.5 211.75,4 -4,4"/>
<g id="clust1" class="cluster">
<title>cluster_N</title>
<polygon fill="none" stroke="black" points="8,-8 8,-84.5 78,-84.5 78,-8 8,-8"/>
<text xml:space="preserve" text-anchor="middle" x="65.12" y="-15.2" font-family="Times New Roman,serif" font-size="14.00">N</text>
</g>
<!-- p -->
<g id="node1" class="node">
<title>p</title>
<ellipse fill="white" stroke="black" cx="43" cy="-133" rx="27" ry="18"/>
<text xml:space="preserve" text-anchor="middle" x="43" y="-127.95" font-family="Times New Roman,serif" font-size="14.00">p</text>
</g>
<!-- y -->
<g id="node2" class="node">
<title>y</title>
<ellipse fill="grey" stroke="black" cx="43" cy="-58.5" rx="27" ry="18"/>
<text xml:space="preserve" text-anchor="middle" x="43" y="-53.45" font-family="Times New Roman,serif" font-size="14.00">y</text>
</g>
<!-- p&#45;&gt;y -->
<g id="edge1" class="edge">
<title>p&#45;&gt;y</title>
<path fill="none" stroke="black" d="M43,-114.82C43,-106.78 43,-97 43,-87.91"/>
<polygon fill="black" stroke="black" points="46.5,-88.07 43,-78.07 39.5,-88.07 46.5,-88.07"/>
</g>
<!-- distribution_description_node -->
<g id="node3" class="node">
<title>distribution_description_node</title>
<text xml:space="preserve" text-anchor="start" x="96.25" y="-136.2" font-family="Times New Roman,serif" font-size="14.00">p ~ Uniform</text>
<text xml:space="preserve" text-anchor="start" x="96.25" y="-119.7" font-family="Times New Roman,serif" font-size="14.00">y ~ BernoulliProbs</text>
</g>
</g>
</svg>
