<?xml version="1.0" encoding="UTF-8" standalone="no"?>
<!DOCTYPE svg PUBLIC "-//W3C//DTD SVG 1.1//EN"
 "http://www.w3.org/Graphics/SVG/1.1/DTD/svg11.dtd">
<!-- Generated by graphviz version 13.1.2 (0)
 -->
<!-- Pages: 1 -->
<svg width="370pt" height="304pt"
 viewBox="0.00 0.00 370.00 304.00" xmlns="http://www.w3.org/2000/svg" xmlns:xlink="http://www.w3.org/1999/xlink">
<g id="graph0" class="graph" transform="scale(1 1) rotate(0) translate(4 300)">
<polygon fill="white" stroke="none" points="-4,4 -4,-300 366.38,-300 366.38,4 -4,4"/>
<g id="clust1" class="cluster">
<title>cluster_N</title>
<polygon fill="none" stroke="black" points="8,-8 8,-161 78,-161 78,-8 8,-8"/>
<text xml:space="preserve" text-anchor="middle" x="65.12" y="-15.2" font-family="Times New Roman,serif" font-size="14.00">N</text>
</g>
<g id="clust2" class="cluster">
<title>cluster_group</title>
<polygon fill="none" stroke="black" points="86,-84.5 86,-268.5 228,-268.5 228,-84.5 86,-84.5"/>
<text xml:space="preserve" text-anchor="middle" x="204.25" y="-91.7" font-family="Times New Roman,serif" font-size="14.00">group</text>
</g>
<!-- p -->
<g id="node1" class="node">
<title>p</title>
<ellipse fill="white" stroke="black" cx="43" cy="-242.5" rx="27" ry="18"/>
<text xml:space="preserve" text-anchor="middle" x="43" y="-237.45" font-family="Times New Roman,serif" font-size="14.00">p</text>
</g>
<!-- s -->
<g id="node2" class="node">
<title>s</title>
<ellipse fill="white" stroke="black" cx="43" cy="-135" rx="27" ry="18"/>
<text xml:space="preserve" text-anchor="middle" x="43" y="-129.95" font-family="Times New Roman,serif" font-size="14.00">s</text>
</g>
<!-- p&#45;&gt;s -->
<g id="edge1" class="edge">
<title>p&#45;&gt;s</title>
<path fill="none" stroke="black" d="M43,-224.08C43,-207.97 43,-183.72 43,-164.74"/>
<polygon fill="black" stroke="black" points="46.5,-164.96 43,-154.96 39.5,-164.96 46.5,-164.96"/>
</g>
<!-- Y -->
<g id="node3" class="node">
<title>Y</title>
<ellipse fill="grey" stroke="black" cx="43" cy="-58.5" rx="27" ry="18"/>
<text xml:space="preserve" text-anchor="middle" x="43" y="-53.45" font-family="Times New Roman,serif" font-size="14.00">Y</text>
</g>
<!-- s&#45;&gt;Y -->
<g id="edge3" class="edge">
<title>s&#45;&gt;Y</title>
<path fill="none" stroke="black" d="M43,-116.72C43,-108.32 43,-97.99 43,-88.43"/>
<polygon fill="black" stroke="black" points="46.5,-88.46 43,-78.46 39.5,-88.46 46.5,-88.46"/>
</g>
<!-- μ_s -->
<g id="node4" class="node">
<title>μ_s</title>
<ellipse fill="white" stroke="black" cx="193" cy="-242.5" rx="27" ry="18"/>
<text xml:space="preserve" text-anchor="middle" x="193" y="-237.45" font-family="Times New Roman,serif" font-size="14.00">μ_s</text>
</g>
<!-- μ_s&#45;&gt;Y -->
<g id="edge4" class="edge">
<title>μ_s&#45;&gt;Y</title>
<path fill="none" stroke="black" d="M194.53,-224.05C196.32,-191.7 195.15,-122.28 157,-84.5 146.37,-73.97 110.08,-67.27 81.26,-63.49"/>
<polygon fill="black" stroke="black" points="81.72,-60.02 71.37,-62.27 80.86,-66.96 81.72,-60.02"/>
</g>
<!-- τ_s -->
<g id="node5" class="node">
<title>τ_s</title>
<ellipse fill="white" stroke="black" cx="121" cy="-242.5" rx="27" ry="18"/>
<text xml:space="preserve" text-anchor="middle" x="121" y="-237.45" font-family="Times New Roman,serif" font-size="14.00">τ_s</text>
</g>
<!-- σ_s -->
<g id="node6" class="node">
<title>σ_s</title>
<ellipse fill="white" stroke="black" stroke-dasharray="5,2" cx="121" cy="-135" rx="27" ry="18"/>
<text xml:space="preserve" text-anchor="middle" x="121" y="-129.95" font-family="Times New Roman,serif" font-size="14.00">σ_s</text>
</g>
<!-- τ_s&#45;&gt;σ_s -->
<g id="edge2" class="edge">
<title>τ_s&#45;&gt;σ_s</title>
<path fill="none" stroke="black" d="M121,-224.08C121,-207.97 121,-183.72 121,-164.74"/>
<polygon fill="black" stroke="black" points="124.5,-164.96 121,-154.96 117.5,-164.96 124.5,-164.96"/>
</g>
<!-- σ_s&#45;&gt;Y -->
<g id="edge5" class="edge">
<title>σ_s&#45;&gt;Y</title>
<path fill="none" stroke="black" d="M110.59,-118.16C103.34,-107.84 93.02,-94.5 82,-84.5 79.11,-81.88 75.92,-79.36 72.64,-76.99"/>
<polygon fill="black" stroke="black" points="74.87,-74.27 64.62,-71.6 70.97,-80.08 74.87,-74.27"/>
</g>
<!-- distribution_description_node -->
<g id="node7" class="node">
<title>distribution_description_node</title>
<text xml:space="preserve" text-anchor="start" x="245.62" y="-278.7" font-family="Times New Roman,serif" font-size="14.00">p ~ Uniform</text>
<text xml:space="preserve" text-anchor="start" x="245.62" y="-262.2" font-family="Times New Roman,serif" font-size="14.00">s ~ BernoulliProbs</text>
<text xml:space="preserve" text-anchor="start" x="245.62" y="-245.7" font-family="Times New Roman,serif" font-size="14.00">μ_s ~ Normal</text>
<text xml:space="preserve" text-anchor="start" x="245.62" y="-229.2" font-family="Times New Roman,serif" font-size="14.00">τ_s ~ HalfNormal</text>
<text xml:space="preserve" text-anchor="start" x="245.62" y="-212.7" font-family="Times New Roman,serif" font-size="14.00">σ_s ~ Deterministic</text>
<text xml:space="preserve" text-anchor="start" x="245.62" y="-196.2" font-family="Times New Roman,serif" font-size="14.00">Y ~ Normal</text>
</g>
</g>
</svg>
