<?xml version="1.0" encoding="UTF-8" standalone="no"?>
<!DOCTYPE svg PUBLIC "-//W3C//DTD SVG 1.1//EN"
 "http://www.w3.org/Graphics/SVG/1.1/DTD/svg11.dtd">
<!-- Generated by graphviz version 13.1.2 (0)
 -->
<!-- Pages: 1 -->
<svg width="264pt" height="283pt"
 viewBox="0.00 0.00 264.00 283.00" xmlns="http://www.w3.org/2000/svg" xmlns:xlink="http://www.w3.org/1999/xlink">
<g id="graph0" class="graph" transform="scale(1 1) rotate(0) translate(4 279)">
<polygon fill="white" stroke="none" points="-4,4 -4,-279 260.38,-279 260.38,4 -4,4"/>
<g id="clust1" class="cluster">
<title>cluster_N</title>
<polygon fill="none" stroke="black" points="64,-8 64,-84.5 134,-84.5 134,-8 64,-8"/>
<text xml:space="preserve" text-anchor="middle" x="121.12" y="-15.2" font-family="Times New Roman,serif" font-size="14.00">N</text>
</g>
<!-- ω0 -->
<g id="node1" class="node">
<title>ω0</title>
<ellipse fill="white" stroke="black" cx="27" cy="-229.75" rx="27" ry="18"/>
<text xml:space="preserve" text-anchor="middle" x="27" y="-224.7" font-family="Times New Roman,serif" font-size="14.00">ω0</text>
</g>
<!-- μ -->
<g id="node3" class="node">
<title>μ</title>
<ellipse fill="white" stroke="black" stroke-dasharray="5,2" cx="63" cy="-130.5" rx="27" ry="18"/>
<text xml:space="preserve" text-anchor="middle" x="63" y="-125.45" font-family="Times New Roman,serif" font-size="14.00">μ</text>
</g>
<!-- ω0&#45;&gt;μ -->
<g id="edge1" class="edge">
<title>ω0&#45;&gt;μ</title>
<path fill="none" stroke="black" d="M33.27,-211.81C38.69,-197.17 46.62,-175.74 52.93,-158.69"/>
<polygon fill="black" stroke="black" points="56.09,-160.26 56.28,-149.66 49.52,-157.83 56.09,-160.26"/>
</g>
<!-- ω1 -->
<g id="node2" class="node">
<title>ω1</title>
<ellipse fill="white" stroke="black" cx="99" cy="-229.75" rx="27" ry="18"/>
<text xml:space="preserve" text-anchor="middle" x="99" y="-224.7" font-family="Times New Roman,serif" font-size="14.00">ω1</text>
</g>
<!-- ω1&#45;&gt;μ -->
<g id="edge2" class="edge">
<title>ω1&#45;&gt;μ</title>
<path fill="none" stroke="black" d="M92.73,-211.81C87.31,-197.17 79.38,-175.74 73.07,-158.69"/>
<polygon fill="black" stroke="black" points="76.48,-157.83 69.72,-149.66 69.91,-160.26 76.48,-157.83"/>
</g>
<!-- Y -->
<g id="node5" class="node">
<title>Y</title>
<ellipse fill="grey" stroke="black" cx="99" cy="-58.5" rx="27" ry="18"/>
<text xml:space="preserve" text-anchor="middle" x="99" y="-53.45" font-family="Times New Roman,serif" font-size="14.00">Y</text>
</g>
<!-- μ&#45;&gt;Y -->
<g id="edge3" class="edge">
<title>μ&#45;&gt;Y</title>
<path fill="none" stroke="black" d="M71.35,-113.26C75.58,-105.05 80.81,-94.87 85.58,-85.59"/>
<polygon fill="black" stroke="black" points="88.54,-87.49 90,-76.99 82.32,-84.29 88.54,-87.49"/>
</g>
<!-- σ -->
<g id="node4" class="node">
<title>σ</title>
<ellipse fill="white" stroke="black" cx="135" cy="-130.5" rx="27" ry="18"/>
<text xml:space="preserve" text-anchor="middle" x="135" y="-125.45" font-family="Times New Roman,serif" font-size="14.00">σ</text>
</g>
<!-- σ&#45;&gt;Y -->
<g id="edge4" class="edge">
<title>σ&#45;&gt;Y</title>
<path fill="none" stroke="black" d="M126.65,-113.26C122.42,-105.05 117.19,-94.87 112.42,-85.59"/>
<polygon fill="black" stroke="black" points="115.68,-84.29 108,-76.99 109.46,-87.49 115.68,-84.29"/>
</g>
<!-- distribution_description_node -->
<g id="node6" class="node">
<title>distribution_description_node</title>
<text xml:space="preserve" text-anchor="start" x="151.62" y="-257.7" font-family="Times New Roman,serif" font-size="14.00">ω0 ~ Normal</text>
<text xml:space="preserve" text-anchor="start" x="151.62" y="-241.2" font-family="Times New Roman,serif" font-size="14.00">ω1 ~ Normal</text>
<text xml:space="preserve" text-anchor="start" x="151.62" y="-224.7" font-family="Times New Roman,serif" font-size="14.00">μ ~ Deterministic</text>
<text xml:space="preserve" text-anchor="start" x="151.62" y="-208.2" font-family="Times New Roman,serif" font-size="14.00">σ ~ HalfNormal</text>
<text xml:space="preserve" text-anchor="start" x="151.62" y="-191.7" font-family="Times New Roman,serif" font-size="14.00">Y ~ Normal</text>
</g>
</g>
</svg>
