<?xml version="1.0" encoding="UTF-8" standalone="no"?>
<!DOCTYPE svg PUBLIC "-//W3C//DTD SVG 1.1//EN"
 "http://www.w3.org/Graphics/SVG/1.1/DTD/svg11.dtd">
<!-- Generated by graphviz version 13.1.2 (0)
 -->
<!-- Pages: 1 -->
<svg width="459pt" height="426pt"
 viewBox="0.00 0.00 459.00 426.00" xmlns="http://www.w3.org/2000/svg" xmlns:xlink="http://www.w3.org/1999/xlink">
<g id="graph0" class="graph" transform="scale(1 1) rotate(0) translate(4 421.5)">
<polygon fill="white" stroke="none" points="-4,4 -4,-421.5 454.89,-421.5 454.89,4 -4,4"/>
<g id="clust1" class="cluster">
<title>cluster_group</title>
<polygon fill="none" stroke="black" points="81.39,-156.5 81.39,-233 223.39,-233 223.39,-156.5 81.39,-156.5"/>
<text xml:space="preserve" text-anchor="middle" x="199.64" y="-163.7" font-family="Times New Roman,serif" font-size="14.00">group</text>
</g>
<g id="clust2" class="cluster">
<title>cluster_N</title>
<polygon fill="none" stroke="black" points="117.39,-8 117.39,-84.5 187.39,-84.5 187.39,-8 117.39,-8"/>
<text xml:space="preserve" text-anchor="middle" x="174.52" y="-15.2" font-family="Times New Roman,serif" font-size="14.00">N</text>
</g>
<!-- μ_ω0 -->
<g id="node1" class="node">
<title>μ_ω0</title>
<ellipse fill="white" stroke="black" cx="31.39" cy="-339.25" rx="31.39" ry="18"/>
<text xml:space="preserve" text-anchor="middle" x="31.39" y="-334.2" font-family="Times New Roman,serif" font-size="14.00">μ_ω0</text>
</g>
<!-- ω0 -->
<g id="node7" class="node">
<title>ω0</title>
<ellipse fill="white" stroke="black" cx="116.39" cy="-207" rx="27" ry="18"/>
<text xml:space="preserve" text-anchor="middle" x="116.39" y="-201.95" font-family="Times New Roman,serif" font-size="14.00">ω0</text>
</g>
<!-- μ_ω0&#45;&gt;ω0 -->
<g id="edge1" class="edge">
<title>μ_ω0&#45;&gt;ω0</title>
<path fill="none" stroke="black" d="M39.09,-321.41C46.71,-305.37 59.12,-280.8 72.39,-261 79.28,-250.72 87.79,-240.09 95.49,-231.07"/>
<polygon fill="black" stroke="black" points="97.89,-233.64 101.82,-223.8 92.61,-229.04 97.89,-233.64"/>
</g>
<!-- σ_ω0 -->
<g id="node2" class="node">
<title>σ_ω0</title>
<ellipse fill="white" stroke="black" cx="112.39" cy="-339.25" rx="31.39" ry="18"/>
<text xml:space="preserve" text-anchor="middle" x="112.39" y="-334.2" font-family="Times New Roman,serif" font-size="14.00">σ_ω0</text>
</g>
<!-- σ_ω0&#45;&gt;ω0 -->
<g id="edge2" class="edge">
<title>σ_ω0&#45;&gt;ω0</title>
<path fill="none" stroke="black" d="M112.92,-320.95C113.58,-299.45 114.72,-262.43 115.51,-236.66"/>
<polygon fill="black" stroke="black" points="119,-236.98 115.81,-226.88 112.01,-236.77 119,-236.98"/>
</g>
<!-- μ_ω1 -->
<g id="node3" class="node">
<title>μ_ω1</title>
<ellipse fill="white" stroke="black" cx="193.39" cy="-339.25" rx="31.39" ry="18"/>
<text xml:space="preserve" text-anchor="middle" x="193.39" y="-334.2" font-family="Times New Roman,serif" font-size="14.00">μ_ω1</text>
</g>
<!-- ω1 -->
<g id="node8" class="node">
<title>ω1</title>
<ellipse fill="white" stroke="black" cx="188.39" cy="-207" rx="27" ry="18"/>
<text xml:space="preserve" text-anchor="middle" x="188.39" y="-201.95" font-family="Times New Roman,serif" font-size="14.00">ω1</text>
</g>
<!-- μ_ω1&#45;&gt;ω1 -->
<g id="edge3" class="edge">
<title>μ_ω1&#45;&gt;ω1</title>
<path fill="none" stroke="black" d="M192.73,-320.95C191.9,-299.45 190.48,-262.43 189.49,-236.66"/>
<polygon fill="black" stroke="black" points="193,-236.74 189.12,-226.88 186,-237.01 193,-236.74"/>
</g>
<!-- σ_ω1 -->
<g id="node4" class="node">
<title>σ_ω1</title>
<ellipse fill="white" stroke="black" cx="274.39" cy="-339.25" rx="31.39" ry="18"/>
<text xml:space="preserve" text-anchor="middle" x="274.39" y="-334.2" font-family="Times New Roman,serif" font-size="14.00">σ_ω1</text>
</g>
<!-- σ_ω1&#45;&gt;ω1 -->
<g id="edge4" class="edge">
<title>σ_ω1&#45;&gt;ω1</title>
<path fill="none" stroke="black" d="M266.74,-321.38C259.16,-305.31 246.77,-280.73 233.39,-261 226.38,-250.66 217.68,-240.02 209.81,-231.01"/>
<polygon fill="black" stroke="black" points="212.58,-228.86 203.31,-223.74 207.37,-233.53 212.58,-228.86"/>
</g>
<!-- μ -->
<g id="node5" class="node">
<title>μ</title>
<ellipse fill="white" stroke="black" stroke-dasharray="5,2" cx="116.39" cy="-130.5" rx="27" ry="18"/>
<text xml:space="preserve" text-anchor="middle" x="116.39" y="-125.45" font-family="Times New Roman,serif" font-size="14.00">μ</text>
</g>
<!-- Y -->
<g id="node9" class="node">
<title>Y</title>
<ellipse fill="grey" stroke="black" cx="152.39" cy="-58.5" rx="27" ry="18"/>
<text xml:space="preserve" text-anchor="middle" x="152.39" y="-53.45" font-family="Times New Roman,serif" font-size="14.00">Y</text>
</g>
<!-- μ&#45;&gt;Y -->
<g id="edge7" class="edge">
<title>μ&#45;&gt;Y</title>
<path fill="none" stroke="black" d="M124.74,-113.26C128.97,-105.05 134.2,-94.87 138.97,-85.59"/>
<polygon fill="black" stroke="black" points="141.93,-87.49 143.39,-76.99 135.71,-84.29 141.93,-87.49"/>
</g>
<!-- σ -->
<g id="node6" class="node">
<title>σ</title>
<ellipse fill="white" stroke="black" cx="188.39" cy="-130.5" rx="27" ry="18"/>
<text xml:space="preserve" text-anchor="middle" x="188.39" y="-125.45" font-family="Times New Roman,serif" font-size="14.00">σ</text>
</g>
<!-- σ&#45;&gt;Y -->
<g id="edge8" class="edge">
<title>σ&#45;&gt;Y</title>
<path fill="none" stroke="black" d="M180.04,-113.26C175.82,-105.05 170.58,-94.87 165.81,-85.59"/>
<polygon fill="black" stroke="black" points="169.07,-84.29 161.39,-76.99 162.85,-87.49 169.07,-84.29"/>
</g>
<!-- ω0&#45;&gt;μ -->
<g id="edge5" class="edge">
<title>ω0&#45;&gt;μ</title>
<path fill="none" stroke="black" d="M116.39,-188.72C116.39,-180.32 116.39,-169.99 116.39,-160.43"/>
<polygon fill="black" stroke="black" points="119.89,-160.46 116.39,-150.46 112.89,-160.46 119.89,-160.46"/>
</g>
<!-- ω1&#45;&gt;μ -->
<g id="edge6" class="edge">
<title>ω1&#45;&gt;μ</title>
<path fill="none" stroke="black" d="M178.59,-189.77C171.96,-179.55 162.57,-166.46 152.39,-156.5 150.17,-154.33 147.75,-152.22 145.24,-150.2"/>
<polygon fill="black" stroke="black" points="147.33,-147.39 137.21,-144.26 143.17,-153.02 147.33,-147.39"/>
</g>
<!-- distribution_description_node -->
<g id="node10" class="node">
<title>distribution_description_node</title>
<text xml:space="preserve" text-anchor="start" x="331.89" y="-400.2" font-family="Times New Roman,serif" font-size="14.00">μ_ω0 ~ Normal</text>
<text xml:space="preserve" text-anchor="start" x="331.89" y="-383.7" font-family="Times New Roman,serif" font-size="14.00">σ_ω0 ~ HalfNormal</text>
<text xml:space="preserve" text-anchor="start" x="331.89" y="-367.2" font-family="Times New Roman,serif" font-size="14.00">ω0 ~ Normal</text>
<text xml:space="preserve" text-anchor="start" x="331.89" y="-350.7" font-family="Times New Roman,serif" font-size="14.00">μ_ω1 ~ Normal</text>
<text xml:space="preserve" text-anchor="start" x="331.89" y="-334.2" font-family="Times New Roman,serif" font-size="14.00">σ_ω1 ~ HalfNormal</text>
<text xml:space="preserve" text-anchor="start" x="331.89" y="-317.7" font-family="Times New Roman,serif" font-size="14.00">ω1 ~ Normal</text>
<text xml:space="preserve" text-anchor="start" x="331.89" y="-301.2" font-family="Times New Roman,serif" font-size="14.00">μ ~ Deterministic</text>
<text xml:space="preserve" text-anchor="start" x="331.89" y="-284.7" font-family="Times New Roman,serif" font-size="14.00">σ ~ HalfNormal</text>
<text xml:space="preserve" text-anchor="start" x="331.89" y="-268.2" font-family="Times New Roman,serif" font-size="14.00">Y ~ Normal</text>
</g>
</g>
</svg>
